<?xml version="1.0" encoding="UTF-8"?>
<svg id="Layer_2" xmlns="http://www.w3.org/2000/svg" viewBox="0 0 1815.51 404.87">
  <defs>
    <style>
      .cls-1 {
        fill: #b51f47;
      }

      .cls-2 {
        fill: #212121;
      }
    </style>
  </defs>
  <g id="Layer_1-2" data-name="Layer_1">
    <g id="Logo_White">
      <g id="Logo">
        <g id="Logo_Shapes">
          <g id="Shape_e">
            <path class="cls-1" d="M213.05,272.56h93.16c-7.88-33.54-37.98-58.54-73.93-58.54-41.92,0-75.92,33.98-75.92,75.9s34,75.87,75.92,75.87c23.43,0,44.37-10.6,58.28-27.25l37.34,15.07c-20.6,30.82-55.72,51.14-95.62,51.14-63.46,0-114.91-51.41-114.91-114.83s51.44-114.83,114.91-114.83c57.57,0,105.25,42.29,113.6,97.47.88,5.65,1.31,11.44,1.31,17.36s-.44,11.71-1.31,17.36h-132.82v-34.72Z"/>
          </g>
          <g id="Shape_bag">
            <path class="cls-1" d="M61.83,120.16v-10.58h18.16v10.58c0,5.01-4.07,9.07-9.08,9.07s-9.08-4.06-9.08-9.07Z"/>
            <path class="cls-1" d="M178.47,120.16v-10.58h18.16v10.58c0,5.01-4.06,9.07-9.08,9.07s-9.08-4.06-9.08-9.07Z"/>
            <path class="cls-1" d="M130.85,188.57c-27.09,27.07-42.01,63.06-42.01,101.35s14.92,74.28,42.01,101.35c4.95,4.95,10.2,9.49,15.71,13.6H22.5c-13.27,0-23.66-11.42-22.4-24.62l23.95-250.34c1.1-11.53,10.8-20.34,22.4-20.34h5.94v9.87c0,10.34,8.42,18.75,18.76,18.75s18.76-8.42,18.76-18.75v-9.87h79.11v9.87c0,10.34,8.42,18.75,18.76,18.75s18.76-8.42,18.76-18.75v-9.87h5.41c11.59,0,21.29,8.81,22.39,20.34l1.6,16.72c-1.23-.03-2.45-.05-3.69-.05-38.31,0-74.33,14.91-101.42,41.98Z"/>
          </g>
          <g id="Shape_Handle">
            <path class="cls-1" d="M196.63,67.36v52.8c0,5.01-4.06,9.07-9.08,9.07s-9.08-4.06-9.08-9.07v-52.8c0-27.14-22.09-49.21-49.24-49.21s-49.24,22.07-49.24,49.21v52.8c0,5.01-4.07,9.07-9.08,9.07s-9.08-4.06-9.08-9.07v-52.8C61.83,30.22,92.07,0,129.23,0s67.4,30.22,67.4,67.36Z"/>
          </g>
        </g>
        <g id="Typography">
          <path class="cls-2" d="M564.71,210.76h-98.39c1.96,22.71,13.45,32.52,32.52,32.52,16.54,0,27.19-5.89,28.31-19.34h37.56c-.84,31.68-27.19,50.18-66.72,50.18-45.97,0-74.57-26.07-74.57-70.08s28.59-72.88,75.41-72.88c38.68,0,65.88,22.15,65.88,67.56v12.05ZM527.14,185.81c0-15.7-10.65-23.83-28.31-23.83s-28.03,7.85-31.4,26.07h59.71v-2.24Z"/>
          <path class="cls-2" d="M582.37,208.51h40.93c0,19.9,8.13,32.8,38.97,32.8s38.12-11.21,38.12-22.99c0-7.85-3.36-12.89-10.65-15.42-8.13-2.8-27.19-5.61-42.61-7.85-18.22-2.8-36.72-6.45-47.37-13.45-11.77-7.57-17.94-20.46-17.94-38.12,0-34.76,27.19-58.87,80.45-58.87,58.59,0,77.65,24.39,77.65,65.88h-40.65c0-21.02-10.93-32.52-36.16-32.52s-35.6,9.25-35.6,21.58c0,8.97,2.52,14.02,8.97,16.82,7.01,3.08,26.35,6.17,42.05,8.69,20.74,3.36,36.44,6.73,47.37,12.62,13.17,7.01,20.18,20.18,20.18,37.56,0,31.4-17.66,59.43-83.54,59.43s-80.17-32.24-80.17-66.16Z"/>
          <path class="cls-2" d="M766.26,77.6h42.61v61.11c0,5.33-.84,21.02-1.68,31.4h.56c7.01-26.35,23.27-38.97,54.66-38.97,33.36,0,54.94,18.22,54.94,54.1v86.62h-42.61v-77.09c0-19.62-10.93-28.31-29.99-28.31-22.43,0-35.88,13.18-35.88,39.53v65.88h-42.61V77.6Z"/>
          <path class="cls-2" d="M934.74,202.91c0-45.13,29.71-71.76,75.41-71.76s75.41,26.63,75.41,71.76-29.71,71.2-75.41,71.2-75.41-26.35-75.41-71.2ZM1042.94,202.91c0-24.67-12.05-39.24-32.8-39.24s-32.8,14.58-32.8,39.24,12.05,38.69,32.8,38.69,32.8-14.3,32.8-38.69Z"/>
          <path class="cls-2" d="M1104.89,133.39h42.61l-.84,28.31h.28c5.33-19.06,22.99-30.56,46.81-30.56,38.69,0,63.91,27.47,63.91,68.4,0,44.85-25.23,74.57-64.19,74.57-25.23,0-40.93-10.37-47.09-27.19h-.28c.56,9.25,1.4,22.99,1.4,28.03v52.42h-42.61v-193.98ZM1215.34,201.23c0-22.43-12.89-37.56-32.24-37.56-21.3,0-35.6,15.42-35.6,38.68v6.17c0,19.9,14.3,33.08,35.88,33.08,19.06,0,31.96-16.26,31.96-40.37Z"/>
          <path class="cls-2" d="M1342.89,87.41h79.33c47.09,0,75.41,22.15,75.41,66.72,0,40.93-22.99,65.04-71.2,65.04h-37.56v52.7h-45.97V87.41ZM1424.46,188.33c19.34,0,29.99-10.37,29.99-31.96s-11.77-32.8-33.64-32.8h-31.96v64.75h35.6Z"/>
          <path class="cls-2" d="M1514.72,133.39h42.61l-1.68,39.52h.56c5.89-26.35,20.74-41.77,47.94-41.77s44.85,18.22,44.85,54.1c0,7.85-.84,20.18-1.4,27.47h-38.68c.56-6.73.84-13.74.84-17.94,0-20.18-8.13-28.31-21.58-28.31-18.22,0-30.83,14.86-30.83,45.69v59.71h-42.61v-138.48Z"/>
          <path class="cls-2" d="M1664.7,202.91c0-45.13,29.71-71.76,75.41-71.76s75.41,26.63,75.41,71.76-29.71,71.2-75.41,71.2-75.41-26.35-75.41-71.2ZM1772.9,202.91c0-24.67-12.05-39.24-32.8-39.24s-32.8,14.58-32.8,39.24,12.05,38.69,32.8,38.69,32.8-14.3,32.8-38.69Z"/>
        </g>
      </g>
    </g>
  </g>
</svg>