<svg width="400" height="100" viewBox="0 0 400 100" fill="none" xmlns="http://www.w3.org/2000/svg">
<path d="M120.503 75.6665C115.722 75.6665 111.913 74.0796 109.078 70.9058C106.264 67.7108 104.856 63.5742 104.856 58.4961V57.0996C104.856 52.2119 106.306 48.1494 109.205 44.9121C112.125 41.6536 115.573 40.0244 119.551 40.0244C124.164 40.0244 127.655 41.4209 130.025 44.2139C132.416 47.0068 133.611 50.7308 133.611 55.3857V59.2896H111.331L111.236 59.4482C111.299 62.749 112.135 65.4679 113.743 67.605C115.351 69.7209 117.605 70.7788 120.503 70.7788C122.619 70.7788 124.471 70.4826 126.058 69.8901C127.666 69.2765 129.052 68.4408 130.215 67.3828L132.659 71.4453C131.432 72.6302 129.803 73.6353 127.771 74.4604C125.761 75.2645 123.339 75.6665 120.503 75.6665ZM119.551 44.9438C117.457 44.9438 115.669 45.8325 114.188 47.6099C112.706 49.366 111.797 51.5771 111.458 54.2432L111.521 54.4019H127.359V53.5767C127.359 51.1222 126.703 49.0698 125.391 47.4194C124.079 45.769 122.133 44.9438 119.551 44.9438Z" fill="#201A1A"/>
<path d="M146.91 70.1123H166.937L167.444 64.812H172.776V75H139.896V70.3662L164.556 33.7085H146.021L145.577 39.0088H140.213V28.7891H171.729V33.2642L146.91 70.1123Z" fill="#201A1A"/>
<path d="M193.501 75.6665C188.72 75.6665 184.911 74.0796 182.076 70.9058C179.262 67.7108 177.854 63.5742 177.854 58.4961V57.0996C177.854 52.2119 179.304 48.1494 182.203 44.9121C185.123 41.6536 188.571 40.0244 192.549 40.0244C197.162 40.0244 200.653 41.4209 203.023 44.2139C205.414 47.0068 206.609 50.7308 206.609 55.3857V59.2896H184.329L184.234 59.4482C184.297 62.749 185.133 65.4679 186.741 67.605C188.349 69.7209 190.603 70.7788 193.501 70.7788C195.617 70.7788 197.469 70.4826 199.056 69.8901C200.664 69.2765 202.05 68.4408 203.213 67.3828L205.657 71.4453C204.43 72.6302 202.801 73.6353 200.77 74.4604C198.759 75.2645 196.337 75.6665 193.501 75.6665ZM192.549 44.9438C190.455 44.9438 188.667 45.8325 187.186 47.6099C185.704 49.366 184.795 51.5771 184.456 54.2432L184.52 54.4019H200.357V53.5767C200.357 51.1222 199.701 49.0698 198.389 47.4194C197.077 45.769 195.131 44.9438 192.549 44.9438Z" fill="#201A1A"/>
<path d="M228.477 75.6665C223.695 75.6665 219.887 74.0796 217.051 70.9058C214.237 67.7108 212.83 63.5742 212.83 58.4961V57.0996C212.83 52.2119 214.279 48.1494 217.178 44.9121C220.098 41.6536 223.547 40.0244 227.525 40.0244C232.138 40.0244 235.629 41.4209 237.999 44.2139C240.389 47.0068 241.585 50.7308 241.585 55.3857V59.2896H219.305L219.209 59.4482C219.273 62.749 220.109 65.4679 221.717 67.605C223.325 69.7209 225.578 70.7788 228.477 70.7788C230.593 70.7788 232.444 70.4826 234.031 69.8901C235.639 69.2765 237.025 68.4408 238.189 67.3828L240.633 71.4453C239.406 72.6302 237.776 73.6353 235.745 74.4604C233.735 75.2645 231.312 75.6665 228.477 75.6665ZM227.525 44.9438C225.43 44.9438 223.642 45.8325 222.161 47.6099C220.68 49.366 219.77 51.5771 219.432 54.2432L219.495 54.4019H235.333V53.5767C235.333 51.1222 234.677 49.0698 233.365 47.4194C232.053 45.769 230.106 44.9438 227.525 44.9438Z" fill="#201A1A"/>
<path d="M292.366 37.9932L292.208 37.9614L277.259 75H273.101L258.152 37.9932L257.994 38.0249L258.628 56.7188V70.1123L263.802 71.001V75H247.203V71.001L252.376 70.1123V33.7085L247.203 32.8198V28.7891H260.374L275.101 66.3354H275.291L289.986 28.7891H303.189V32.8198L298.016 33.7085V70.1123L303.189 71.001V75H286.59V71.001L291.763 70.1123V56.7188L292.366 37.9932Z" fill="#201A1A"/>
<path d="M330.674 75C330.484 74.069 330.336 73.2332 330.23 72.4927C330.124 71.7521 330.05 71.0116 330.008 70.271C328.802 71.8156 327.289 73.1063 325.469 74.1431C323.671 75.1587 321.745 75.6665 319.693 75.6665C316.117 75.6665 313.398 74.799 311.536 73.064C309.674 71.3078 308.743 68.8428 308.743 65.6689C308.743 62.4105 310.055 59.9032 312.679 58.147C315.324 56.3696 318.942 55.481 323.533 55.481H329.976V51.4819C329.976 49.4718 329.341 47.8849 328.072 46.7212C326.802 45.5363 325.035 44.9438 322.771 44.9438C321.206 44.9438 319.82 45.1449 318.614 45.5469C317.429 45.9489 316.466 46.499 315.726 47.1973L315.059 50.8154H310.235V44.1504C311.801 42.902 313.694 41.9076 315.916 41.167C318.138 40.4053 320.55 40.0244 323.152 40.0244C327.046 40.0244 330.198 41.0189 332.61 43.0078C335.022 44.9967 336.229 47.8426 336.229 51.5454V68.0811C336.229 68.5254 336.229 68.9591 336.229 69.3823C336.25 69.8055 336.281 70.2287 336.324 70.6519L338.863 71.001V75H330.674ZM320.613 70.4297C322.687 70.4297 324.581 69.9325 326.294 68.938C328.008 67.9435 329.236 66.748 329.976 65.3516V59.7021H323.311C320.751 59.7021 318.72 60.2946 317.217 61.4795C315.736 62.6644 314.996 64.1032 314.996 65.7959C314.996 67.2982 315.461 68.4513 316.392 69.2554C317.323 70.0382 318.73 70.4297 320.613 70.4297Z" fill="#201A1A"/>
<path d="M344.068 44.6899V40.6592H354.827L355.43 45.6421C356.403 43.8859 357.599 42.5106 359.017 41.5161C360.455 40.5216 362.095 40.0244 363.936 40.0244C364.423 40.0244 364.92 40.0667 365.428 40.1514C365.957 40.2148 366.359 40.2889 366.634 40.3735L365.809 46.1816L362.254 45.9912C360.604 45.9912 359.218 46.3826 358.096 47.1655C356.975 47.9272 356.107 49.0063 355.494 50.4028V70.1123L360.667 71.001V75H344.068V71.001L349.241 70.1123V45.5786L344.068 44.6899Z" fill="#201A1A"/>
<path d="M382.916 32.3755V40.6592H389.422V45.293H382.916V66.145C382.916 67.7531 383.243 68.8851 383.899 69.541C384.576 70.1969 385.465 70.5249 386.565 70.5249C387.116 70.5249 387.729 70.4826 388.406 70.3979C389.104 70.2922 389.686 70.1864 390.152 70.0806L391.009 74.3652C390.416 74.7461 389.549 75.0529 388.406 75.2856C387.264 75.5396 386.121 75.6665 384.979 75.6665C382.439 75.6665 380.419 74.9048 378.917 73.3813C377.414 71.8368 376.663 69.4246 376.663 66.145V45.293H371.236V40.6592H376.663V32.3755H382.916Z" fill="#201A1A"/>
<g clip-path="url(#clip0_3194_8731)">
<path d="M52.77 67.32H75.85C73.9 59.04 66.44 52.86 57.54 52.86C47.16 52.86 38.73 61.25 38.73 71.61C38.73 81.97 47.15 90.35 57.54 90.35C63.34 90.35 68.53 87.73 71.98 83.62L81.23 87.34C76.13 94.95 67.43 99.97 57.54 99.97C41.82 99.97 29.08 87.27 29.08 71.61C29.08 55.95 41.82 43.25 57.54 43.25C71.8 43.25 83.61 53.7 85.68 67.32C85.9 68.72 86.01 70.15 86.01 71.61C86.01 73.07 85.9 74.5 85.68 75.9H52.78V67.32H52.77Z" fill="#B52046"/>
<path d="M15.32 29.68V27.07H19.82V29.68C19.82 30.92 18.81 31.92 17.57 31.92C16.33 31.92 15.32 30.92 15.32 29.68Z" fill="#B52046"/>
<path d="M44.21 29.68V27.07H48.71V29.68C48.71 30.92 47.7 31.92 46.46 31.92C45.22 31.92 44.21 30.92 44.21 29.68Z" fill="#B52046"/>
<path d="M32.41 46.58C25.7 53.27 22 62.16 22 71.61C22 81.06 25.7 89.96 32.41 96.64C33.64 97.86 34.94 98.98 36.3 100H5.57C2.28 100 -0.290002 97.18 0.0199985 93.92L5.95 32.09C6.22 29.24 8.63 27.07 11.5 27.07H12.97V29.51C12.97 32.06 15.05 34.14 17.62 34.14C20.19 34.14 22.27 32.06 22.27 29.51V27.07H41.87V29.51C41.87 32.06 43.95 34.14 46.52 34.14C49.09 34.14 51.17 32.06 51.17 29.51V27.07H52.51C55.38 27.07 57.78 29.25 58.06 32.09L58.46 36.22C58.16 36.22 57.85 36.21 57.55 36.21C48.06 36.21 39.14 39.89 32.43 46.58H32.41Z" fill="#B52046"/>
<path d="M48.71 16.64V29.68C48.71 30.92 47.7 31.92 46.46 31.92C45.22 31.92 44.21 30.92 44.21 29.68V16.64C44.21 9.94 38.74 4.48 32.01 4.48C25.28 4.48 19.81 9.93 19.81 16.64V29.68C19.81 30.92 18.8 31.92 17.56 31.92C16.32 31.92 15.31 30.92 15.31 29.68V16.64C15.32 7.46 22.81 0 32.01 0C41.21 0 48.71 7.46 48.71 16.64Z" fill="#B52046"/>
</g>
<defs>
<clipPath id="clip0_3194_8731">
<rect width="86" height="100" fill="white"/>
</clipPath>
</defs>
</svg>
